<svg xmlns="http://www.w3.org/2000/svg" viewBox="15.5 27 638.91 75.5" width="1277.82" height="151" role="img" aria-labelledby="t">
  <title id="t">Te Tengo Captura</title>
  <g fill="none" stroke="#4A2A85" stroke-width="13" stroke-linecap="round"><path d="M60 60 V96"/><path d="M22 38 Q60 80 98 38"/></g><circle cx="60" cy="38" r="11" fill="#E8765A"/>
  <path fill="#4A2A85" d="M138.16 80L138.16 46.85L124.52 46.85L124.52 37.25L162.67 37.25L162.67 46.85L149.04 46.85L149.04 80L138.16 80ZM178.09 80.77Q172.91 80.77 168.91 78.78Q164.91 76.8 162.64 73.02Q160.36 69.25 160.36 63.87Q160.36 58.82 162.73 55.1Q165.1 51.39 169.04 49.34Q172.97 47.3 177.64 47.3Q181.61 47.3 184.78 48.7Q187.95 50.11 190.16 52.7Q192.36 55.3 193.42 58.88Q194.48 62.46 194.16 66.88L170.6 66.88Q170.99 68.35 171.66 69.44Q172.33 70.53 173.26 71.26Q174.19 72 175.34 72.35Q176.49 72.7 177.77 72.7Q179.95 72.7 181.55 72.1Q183.15 71.49 183.98 70.46L192.24 73.54Q189.61 77.31 185.74 79.04Q181.87 80.77 178.09 80.77ZM170.54 60.74L184.56 60.74Q184.36 58.75 183.47 57.5Q182.57 56.26 181.13 55.65Q179.69 55.04 177.96 55.04Q176.24 55.04 174.7 55.62Q173.16 56.19 172.08 57.44Q170.99 58.69 170.54 60.74Z"/>
  <path fill="#E8765A" d="M229.93 80L229.93 46.85L216.3 46.85L216.3 37.25L254.44 37.25L254.44 46.85L240.81 46.85L240.81 80L229.93 80ZM269.87 80.77Q264.68 80.77 260.68 78.78Q256.68 76.8 254.41 73.02Q252.14 69.25 252.14 63.87Q252.14 58.82 254.51 55.1Q256.88 51.39 260.81 49.34Q264.75 47.3 269.42 47.3Q273.39 47.3 276.56 48.7Q279.72 50.11 281.93 52.7Q284.14 55.3 285.2 58.88Q286.25 62.46 285.93 66.88L262.38 66.88Q262.76 68.35 263.44 69.44Q264.11 70.53 265.04 71.26Q265.96 72 267.12 72.35Q268.27 72.7 269.55 72.7Q271.72 72.7 273.32 72.1Q274.92 71.49 275.76 70.46L284.01 73.54Q281.39 77.31 277.52 79.04Q273.64 80.77 269.87 80.77ZM262.32 60.74L276.33 60.74Q276.14 58.75 275.24 57.5Q274.35 56.26 272.91 55.65Q271.47 55.04 269.74 55.04Q268.01 55.04 266.48 55.62Q264.94 56.19 263.85 57.44Q262.76 58.69 262.32 60.74ZM290.48 80L290.48 48.26L299.88 48.26L301.04 52.35Q301.74 51.26 303.12 50.08Q304.49 48.9 306.48 48.1Q308.46 47.3 310.83 47.3Q314.73 47.3 317.1 48.7Q319.47 50.11 320.56 52.9Q321.64 55.68 321.64 59.71L321.64 80L311.08 80L311.08 61.89Q311.08 59.65 310.6 58.21Q310.12 56.77 309.13 56.06Q308.14 55.36 306.54 55.36Q303.6 55.36 302.32 57.54Q301.04 59.71 301.04 63.87L301.04 80L290.48 80ZM344.04 93.12Q341.42 93.12 338.67 92.48Q335.92 91.84 333.55 90.27Q331.18 88.7 329.58 85.95L337.84 82.18Q338.73 83.52 340.24 84.38Q341.74 85.25 344.24 85.25Q345.64 85.25 347.02 84.74Q348.4 84.22 349.29 82.94Q350.19 81.66 350.19 79.42L350.19 73.86Q348.01 76.42 345.32 77.57Q342.64 78.72 340.14 78.72Q336.75 78.72 333.58 76.86Q330.41 75.01 328.43 71.58Q326.44 68.16 326.44 63.36Q326.44 57.73 328.43 54.18Q330.41 50.62 333.48 48.93Q336.56 47.23 339.76 47.23Q342.64 47.23 345.48 48.54Q348.33 49.86 350.19 52.48L351.47 48.26L360.68 48.26L360.68 77.31Q360.68 83.01 358.6 86.5Q356.52 89.98 352.78 91.55Q349.04 93.12 344.04 93.12ZM343.98 70.59Q345.77 70.59 347.28 69.92Q348.78 69.25 349.71 67.62Q350.64 65.98 350.64 63.1Q350.64 60.16 349.71 58.46Q348.78 56.77 347.28 56.06Q345.77 55.36 343.98 55.36Q341.36 55.36 339.34 57.09Q337.32 58.82 337.32 62.78Q337.32 66.75 339.34 68.67Q341.36 70.59 343.98 70.59ZM382.57 80.77Q379.24 80.77 376.17 79.74Q373.1 78.72 370.67 76.64Q368.24 74.56 366.86 71.39Q365.48 68.22 365.48 63.94Q365.48 59.65 366.86 56.51Q368.24 53.38 370.67 51.33Q373.1 49.28 376.17 48.29Q379.24 47.3 382.57 47.3Q385.96 47.3 389 48.29Q392.04 49.28 394.48 51.33Q396.91 53.38 398.28 56.51Q399.66 59.65 399.66 63.94Q399.66 68.22 398.28 71.39Q396.91 74.56 394.48 76.64Q392.04 78.72 389 79.74Q385.96 80.77 382.57 80.77ZM382.57 72.7Q384.49 72.7 385.9 71.71Q387.31 70.72 388.11 68.77Q388.91 66.82 388.91 63.94Q388.91 60.99 388.08 59.1Q387.24 57.22 385.84 56.29Q384.43 55.36 382.57 55.36Q380.78 55.36 379.34 56.29Q377.9 57.22 377.07 59.1Q376.24 60.99 376.24 63.94Q376.24 66.82 377.04 68.77Q377.84 70.72 379.28 71.71Q380.72 72.7 382.57 72.7Z"/>
  <path fill="#4F4766" d="M445.42 80.77Q438.95 80.77 434.38 78.02Q429.8 75.26 427.34 70.27Q424.87 65.28 424.87 58.62Q424.87 51.84 427.43 46.88Q429.99 41.92 434.7 39.2Q439.4 36.48 445.74 36.48Q451.56 36.48 455.98 39.07Q460.39 41.66 462.7 46.27L455.34 48.96Q453.93 46.21 451.34 44.8Q448.75 43.39 445.42 43.39Q442.15 43.39 439.43 45.15Q436.71 46.91 435.15 50.3Q433.58 53.7 433.58 58.62Q433.58 63.49 435.11 66.88Q436.65 70.27 439.4 72.06Q442.15 73.86 445.61 73.86Q447.72 73.86 449.64 73.28Q451.56 72.7 453.13 71.46Q454.7 70.21 455.66 68.29L462.95 70.98Q460.52 75.65 455.91 78.21Q451.31 80.77 445.42 80.77ZM477.1 80.77Q474.09 80.77 471.59 79.65Q469.1 78.53 467.59 76.48Q466.09 74.43 466.09 71.55Q466.09 67.78 468.75 65.47Q471.4 63.17 476.27 61.92Q481.13 60.67 487.72 60.1L487.72 59.26Q487.72 56.32 486.12 54.72Q484.52 53.12 481.32 53.12Q478.95 53.12 477.29 54.21Q475.63 55.3 475.11 57.41L468.2 55.04Q469.67 51.65 473.16 49.6Q476.65 47.55 481.51 47.55Q488.3 47.55 491.72 50.62Q495.15 53.7 495.15 60.61L495.15 67.78Q495.15 70.08 495.31 72.35Q495.47 74.62 495.72 76.58Q495.98 78.53 496.3 80L489.07 80L487.85 75.97Q486.25 78.4 483.56 79.58Q480.87 80.77 477.1 80.77ZM479.72 75.14Q481.96 75.14 483.75 74.4Q485.55 73.66 486.63 71.87Q487.72 70.08 487.72 66.94L487.72 65.22Q481.39 65.73 477.9 67.04Q474.41 68.35 474.41 71.1Q474.41 72.9 475.85 74.02Q477.29 75.14 479.72 75.14ZM503.15 90.37L503.15 48.26L509.61 48.26L511.02 52.86Q511.98 51.14 513.55 49.95Q515.11 48.77 517 48.16Q518.89 47.55 520.94 47.55Q524.84 47.55 527.98 49.54Q531.11 51.52 532.94 55.23Q534.76 58.94 534.76 64.19Q534.76 69.38 532.94 73.09Q531.11 76.8 527.98 78.78Q524.84 80.77 520.94 80.77Q518.89 80.77 517 80.13Q515.11 79.49 513.55 78.27Q511.98 77.06 511.02 75.33L511.02 90.37L503.15 90.37ZM518.57 74.5Q521.96 74.5 524.2 71.84Q526.44 69.18 526.44 64.19Q526.44 59.26 524.2 56.54Q521.96 53.82 518.57 53.82Q515.18 53.82 512.94 56.32Q510.7 58.82 510.7 64.06Q510.7 69.25 512.94 71.87Q515.18 74.5 518.57 74.5ZM551.85 80Q548.33 80 546.31 79.36Q544.3 78.72 543.47 76.86Q542.63 75.01 542.63 71.49L542.63 54.34L537.32 54.34L537.32 48.26L542.63 48.26L542.63 40.32L550.51 40.32L550.51 48.26L557.23 48.26L557.23 54.34L550.51 54.34L550.51 69.63Q550.51 72.06 551.24 72.77Q551.98 73.47 554.22 73.47L557.23 73.47L557.23 80L551.85 80ZM573.93 80.77Q569.9 80.77 567.56 79.2Q565.23 77.63 564.23 74.72Q563.24 71.81 563.24 67.84L563.24 48.26L571.11 48.26L571.11 65.79Q571.11 68.1 571.43 70.08Q571.75 72.06 572.94 73.25Q574.12 74.43 576.75 74.43Q580.14 74.43 581.77 72.19Q583.4 69.95 583.4 65.28L583.4 48.26L591.27 48.26L591.27 80L584.75 80L583.4 75.46Q582.06 77.82 579.88 79.3Q577.71 80.77 573.93 80.77ZM599.15 80L599.15 48.26L605.23 48.26L606.95 54.08Q607.98 51.84 609.51 50.37Q611.05 48.9 613.1 48.16Q615.15 47.42 617.64 47.55L617.64 55.42Q613.93 55.17 611.56 56.16Q609.19 57.15 608.11 59.36Q607.02 61.57 607.02 65.02L607.02 80L599.15 80ZM630.76 80.77Q627.75 80.77 625.26 79.65Q622.76 78.53 621.26 76.48Q619.75 74.43 619.75 71.55Q619.75 67.78 622.41 65.47Q625.07 63.17 629.93 61.92Q634.79 60.67 641.39 60.1L641.39 59.26Q641.39 56.32 639.79 54.72Q638.19 53.12 634.99 53.12Q632.62 53.12 630.95 54.21Q629.29 55.3 628.78 57.41L621.87 55.04Q623.34 51.65 626.83 49.6Q630.31 47.55 635.18 47.55Q641.96 47.55 645.39 50.62Q648.81 53.7 648.81 60.61L648.81 67.78Q648.81 70.08 648.97 72.35Q649.13 74.62 649.39 76.58Q649.64 78.53 649.96 80L642.73 80L641.51 75.97Q639.91 78.4 637.23 79.58Q634.54 80.77 630.76 80.77ZM633.39 75.14Q635.63 75.14 637.42 74.4Q639.21 73.66 640.3 71.87Q641.39 70.08 641.39 66.94L641.39 65.22Q635.05 65.73 631.56 67.04Q628.07 68.35 628.07 71.1Q628.07 72.9 629.51 74.02Q630.95 75.14 633.39 75.14Z"/>
</svg>
